<svg id="Layer_1" data-name="Layer 1" xmlns="http://www.w3.org/2000/svg" viewBox="0 0 27 27"><defs><style>.cls-1{fill:#f04f2c;}</style></defs><path class="cls-1" d="M5.52,5.46a10.33,10.33,0,0,1,5-1.33h.72l.72.06a10.69,10.69,0,0,1,4.26,1.55,9.38,9.38,0,0,1,3.24,3.61,10.42,10.42,0,0,1,1.15,4.7v.61a3.79,3.79,0,0,1-.07.6,7.09,7.09,0,0,1-.22,1.22,9.93,9.93,0,0,1-.4,1.2,9.31,9.31,0,0,1-3.86,4.43,10.53,10.53,0,0,1-5.53,1.63h-.8a12.31,12.31,0,0,1-2-.35,10,10,0,0,1-1.9-.74A10,10,0,0,1,.53,14v-.77a5.52,5.52,0,0,1,.12-.8,9.6,9.6,0,0,1,.45-1.65,10.11,10.11,0,0,1,.69-1.45A9.36,9.36,0,0,1,5.52,5.46Zm9.8,10a4.63,4.63,0,0,0,.1-.65,1.13,1.13,0,0,1,.05-.41,1,1,0,0,0,0-.39v-.7a6.87,6.87,0,0,0-.77-2.45A4.61,4.61,0,0,0,13,9l-.61-.29-.6-.22-.59-.1a5.87,5.87,0,0,0-.59-.05,4.62,4.62,0,0,0-2.77,1,4.8,4.8,0,0,0-1.77,2.5.24.24,0,0,0,0,.12.24.24,0,0,0,0,.12,5.44,5.44,0,0,0-.15.54l-.12.58v1a.88.88,0,0,0,0,.23,6.06,6.06,0,0,0,1,3,4.06,4.06,0,0,0,2.4,1.84l.36.1.38.08h.71a4.53,4.53,0,0,0,2.81-.92A5.17,5.17,0,0,0,15.28,16a1.07,1.07,0,0,1,0-.61Z"/><path class="cls-1" d="M22.3,4.53A2.63,2.63,0,0,1,24,3.66h.08a2.31,2.31,0,0,1,1.74.82,2.67,2.67,0,0,1,.77,1.86,2.15,2.15,0,0,1-.74,1.74,2.8,2.8,0,0,1-1.65.68h-.29a2.8,2.8,0,0,1-1.65-.68,2.15,2.15,0,0,1-.74-1.74,2.4,2.4,0,0,1,.21-1,2.62,2.62,0,0,1,.57-.83Zm-.51,5.82h4.59V23.29H21.79Z"/></svg>